<?xml version="1.0" standalone="no"?>
<!DOCTYPE svg PUBLIC "-//W3C//DTD SVG 20010904//EN"
 "http://www.w3.org/TR/2001/REC-SVG-20010904/DTD/svg10.dtd">
<svg version="1.0" xmlns="http://www.w3.org/2000/svg"
 width="1200.000000pt" height="1200.000000pt" viewBox="0 0 1200.000000 1200.000000"
 preserveAspectRatio="xMidYMid meet">
<metadata>
Created by potrace 1.14, written by Peter Selinger 2001-2017
</metadata>
<g transform="translate(0.000000,1200.000000) scale(0.100000,-0.100000)"
fill="#000000" stroke="none">
<path d="M10999 11116 c-2 -2 -22 -7 -44 -10 -120 -17 -544 -78 -565 -81 -46
-8 -224 -33 -275 -40 -27 -3 -57 -8 -65 -10 -8 -2 -37 -6 -65 -10 -27 -3 -75
-10 -105 -15 -30 -5 -77 -12 -105 -15 -27 -4 -61 -8 -75 -10 -71 -12 -230 -35
-265 -39 -22 -3 -87 -12 -145 -21 -58 -9 -121 -18 -140 -21 -19 -2 -46 -6 -60
-9 -14 -3 -44 -7 -68 -10 -23 -2 -68 -9 -100 -14 -31 -6 -80 -13 -108 -16 -28
-3 -61 -8 -75 -10 -13 -3 -42 -8 -64 -11 -22 -2 -51 -7 -65 -9 -14 -2 -45 -7
-70 -10 -51 -7 -232 -34 -270 -40 -14 -2 -61 -9 -105 -15 -44 -6 -91 -13 -105
-15 -14 -2 -45 -6 -70 -10 -25 -3 -56 -8 -70 -10 -14 -2 -45 -7 -70 -10 -25
-3 -52 -8 -60 -10 -8 -2 -37 -6 -65 -10 -59 -7 -90 -12 -210 -30 -49 -7 -112
-16 -140 -20 -27 -3 -90 -12 -140 -20 -49 -8 -110 -17 -135 -20 -25 -3 -74
-10 -110 -16 -36 -6 -78 -12 -95 -14 -47 -6 -115 -16 -138 -21 -21 -4 -55 -8
-139 -20 -24 -3 -54 -7 -68 -9 -61 -10 -231 -35 -271 -40 -24 -3 -55 -7 -69
-10 -14 -3 -45 -7 -70 -10 -25 -3 -70 -10 -100 -15 -30 -5 -77 -12 -105 -15
-27 -3 -59 -8 -71 -10 -11 -3 -87 -14 -170 -25 -82 -12 -151 -24 -154 -27 -3
-2 -5 -919 -5 -2037 l-1 -2032 236 2 c278 2 1713 13 2390 19 261 2 846 7 1300
10 961 8 1550 13 1568 14 9 1 12 491 12 2416 0 2335 -1 2415 -18 2415 -10 0
-21 -2 -23 -4z"/>
<path d="M4815 10214 c-82 -12 -173 -25 -201 -28 -29 -4 -62 -9 -75 -11 -12
-3 -45 -7 -73 -10 -28 -3 -62 -8 -76 -10 -14 -2 -43 -7 -65 -9 -50 -7 -112
-15 -145 -21 -14 -2 -52 -7 -85 -11 -33 -3 -69 -8 -79 -10 -11 -2 -56 -8 -100
-14 -45 -6 -92 -13 -106 -15 -14 -2 -50 -6 -80 -10 -30 -3 -80 -10 -110 -15
-30 -5 -82 -12 -115 -15 -33 -4 -67 -8 -75 -10 -8 -2 -37 -7 -65 -10 -27 -4
-61 -8 -75 -11 -14 -2 -47 -6 -75 -9 -27 -4 -61 -8 -75 -10 -14 -2 -63 -9
-110 -15 -47 -6 -96 -13 -110 -15 -14 -2 -45 -6 -70 -10 -82 -12 -95 -14 -140
-20 -55 -7 -116 -15 -151 -21 -14 -2 -43 -6 -65 -9 -21 -2 -59 -7 -84 -10 -25
-4 -58 -8 -75 -10 -67 -9 -131 -17 -145 -20 -8 -1 -40 -6 -70 -10 -30 -3 -66
-8 -80 -10 -14 -2 -63 -9 -110 -15 -47 -6 -96 -13 -110 -15 -14 -2 -45 -6 -70
-10 -25 -3 -74 -10 -110 -15 -77 -11 -118 -17 -185 -25 -27 -4 -95 -13 -150
-21 -55 -7 -118 -16 -140 -19 -42 -5 -107 -14 -140 -20 -11 -1 -48 -6 -82 -10
l-63 -7 2 -1732 3 -1733 480 3 c2167 12 3640 21 3660 23 7 1 9 670 8 1988 -1
1094 -2 1994 -2 2000 -1 16 -21 15 -216 -13z"/>
<path d="M929 5802 l-45 -3 0 -1731 c1 -1531 3 -1731 16 -1733 8 -1 53 -8 100
-14 47 -6 95 -13 106 -15 12 -2 65 -10 119 -16 54 -6 105 -13 114 -15 9 -1 39
-6 66 -9 97 -13 121 -17 185 -26 36 -6 83 -12 105 -15 45 -5 188 -24 225 -30
30 -4 171 -24 220 -30 19 -3 46 -7 60 -10 14 -2 48 -7 75 -10 28 -3 64 -7 80
-10 29 -4 70 -10 145 -21 19 -2 49 -6 65 -9 17 -2 53 -7 80 -10 28 -4 61 -8
75 -11 14 -2 79 -11 145 -19 66 -9 134 -18 150 -21 17 -2 44 -6 60 -8 26 -4
165 -23 220 -31 11 -1 43 -6 70 -9 42 -6 177 -25 290 -41 30 -4 183 -25 220
-30 11 -1 45 -5 75 -9 68 -9 93 -12 150 -22 25 -4 56 -8 70 -9 28 -3 110 -14
155 -21 67 -10 92 -14 135 -19 25 -3 54 -7 65 -9 11 -2 45 -7 75 -10 30 -4 66
-8 80 -11 93 -16 335 -45 344 -42 8 3 10 307 9 1118 -1 613 -3 1512 -3 1999
l0 885 -243 2 c-133 0 -640 4 -1127 7 -487 3 -1288 9 -1779 12 -492 3 -897 6
-900 7 -4 1 -27 1 -52 -1z"/>
<path d="M5529 5731 c-1 -32 2 -2990 4 -3498 1 -287 4 -524 7 -526 3 -3 30 -8
60 -12 30 -3 62 -8 70 -10 8 -2 40 -7 70 -10 30 -3 62 -8 70 -10 8 -2 44 -7
80 -10 36 -4 68 -9 71 -11 5 -3 53 -9 139 -19 14 -2 75 -10 135 -19 115 -17
138 -20 220 -31 28 -4 61 -8 74 -11 13 -2 45 -6 70 -10 25 -3 57 -8 71 -10 14
-2 42 -6 63 -9 20 -3 54 -7 75 -10 20 -3 66 -10 102 -15 36 -5 81 -12 100 -14
80 -12 258 -37 295 -42 22 -2 51 -7 65 -9 14 -3 43 -7 65 -10 22 -2 56 -7 75
-10 19 -2 55 -7 80 -10 25 -3 72 -10 105 -15 33 -5 96 -14 140 -20 44 -6 90
-13 101 -15 12 -2 48 -7 80 -11 33 -4 61 -9 64 -9 3 -1 37 -5 75 -10 39 -5 72
-10 75 -10 3 -1 32 -5 65 -9 33 -5 69 -10 80 -12 11 -2 40 -7 65 -10 25 -3 56
-7 69 -9 13 -2 45 -7 70 -11 25 -3 57 -8 71 -10 35 -5 168 -23 215 -29 22 -3
51 -7 65 -10 14 -3 43 -7 64 -10 22 -2 121 -16 220 -30 100 -14 199 -28 221
-31 22 -3 67 -9 100 -14 33 -5 80 -12 105 -15 25 -3 56 -8 70 -10 14 -2 43 -7
65 -10 41 -5 151 -20 218 -30 20 -3 54 -7 75 -10 20 -3 51 -7 67 -10 17 -3 48
-7 70 -10 22 -3 69 -10 105 -15 36 -5 88 -12 115 -16 28 -3 59 -8 70 -10 11
-2 45 -7 75 -10 30 -3 57 -7 60 -9 3 -2 37 -7 75 -10 39 -4 73 -9 76 -10 3 -2
32 -7 65 -10 32 -4 61 -8 64 -10 3 -2 33 -6 68 -10 l62 -7 0 674 c0 370 0
1434 1 2363 0 930 0 1709 0 1731 l-1 42 -1127 2 c-621 1 -1860 3 -2755 4
-1476 2 -1628 1 -1629 -13z"/>
</g>
</svg>
